# xmcd
#
# Track frame offsets:
# 150
# 11032
# 31362
# 41320
# 60380
# 72907
# 88232
# 100035
#
# Disc length: 1495 seconds
#
# Revision: 0
# Processed by: cddbd v1.5PL3 Copyright (c) Steve Scherf et al.
# Submitted via: plextools 2.11
#
DISCID=5d05d508
DTITLE=Big Town Playboys - 6 Pack
DYEAR=1900
DGENRE=Blues
TTITLE0=Big Town Playboys - Ohh Little Girl
TTITLE1=Big Town Playboys - Your Gonna Win
TTITLE2=Big Town Playboys - Every Day Of The Week
TTITLE3=Big Town Playboys - It Always Rains
TTITLE4=Big Town Playboys - Driftin'
TTITLE5=Big Town Playboys - Undecided Fool
TTITLE6=Big Town Playboys - Hole In My Pocket
TTITLE7=Big Town Playboys - No Name
EXTD=
EXTT0=
EXTT1=
EXTT2=
EXTT3=
EXTT4=
EXTT5=
EXTT6=
EXTT7=
PLAYORDER=
